<svg width="466" height="209" viewBox="0 0 466 209" fill="none" xmlns="http://www.w3.org/2000/svg">
<path d="M5.76 136H94.896V112.384H44.352L94.896 55.504V35.2H7.488V58.816H56.304L5.76 115.696V136ZM101.411 136H130.787L137.987 118H176.867L184.211 136H214.163L171.251 34.48H144.323L101.411 136ZM146.195 96.256L157.571 67.6L168.803 96.256H146.195Z" fill="#EDEDED"/>
<path d="M224.504 134H222.504V136H224.504V134ZM252.584 134V136H254.584V134H252.584ZM252.584 33.2H254.584V31.2H252.584V33.2ZM224.504 33.2V31.2H222.504V33.2H224.504ZM224.504 136H252.584V132H224.504V136ZM254.584 134V33.2H250.584V134H254.584ZM252.584 31.2H224.504V35.2H252.584V31.2ZM222.504 33.2V134H226.504V33.2H222.504ZM363.629 33.2H365.629V31.2H363.629V33.2ZM335.261 33.2V31.2H333.261V33.2H335.261ZM298.109 33.2H300.109V31.2H298.109V33.2ZM269.741 33.2V31.2H267.741V33.2H269.741ZM316.397 137.872C331.03 137.872 343.399 134.233 352.12 126.142C360.867 118.027 365.629 105.724 365.629 89.072H361.629C361.629 104.964 357.104 116.061 349.399 123.21C341.667 130.383 330.421 133.872 316.397 133.872V137.872ZM365.629 89.072V33.2H361.629V89.072H365.629ZM363.629 31.2H335.261V35.2H363.629V31.2ZM333.261 33.2V89.936H337.261V33.2H333.261ZM333.261 89.936C333.261 96.662 331.514 101.286 328.733 104.221C325.967 107.141 321.909 108.672 316.685 108.672V112.672C322.694 112.672 327.924 110.891 331.637 106.971C335.337 103.066 337.261 97.3219 337.261 89.936H333.261ZM316.685 108.672C311.487 108.672 307.436 107.085 304.662 104.049C301.865 100.988 300.109 96.1726 300.109 89.216H296.109C296.109 96.8033 298.026 102.716 301.709 106.747C305.415 110.803 310.652 112.672 316.685 112.672V108.672ZM300.109 89.216V33.2H296.109V89.216H300.109ZM298.109 31.2H269.741V35.2H298.109V31.2ZM267.741 33.2V89.792H271.741V33.2H267.741ZM267.741 89.792C267.741 105.94 272.359 118.057 280.955 126.117C289.529 134.156 301.755 137.872 316.397 137.872V133.872C302.384 133.872 291.282 130.316 283.691 123.199C276.123 116.103 271.741 105.18 271.741 89.792H267.741ZM422.93 71.216L422.488 73.1665L422.497 73.1684L422.506 73.1703L422.93 71.216ZM443.81 64.592L442.66 66.2281L444.291 67.3746L445.443 65.7477L443.81 64.592ZM457.778 44.864L459.411 46.0197L460.499 44.4829L459.03 43.3043L457.778 44.864ZM415.298 95.696L415.75 93.7476L415.743 93.7461L415.298 95.696ZM388.082 100.448L389.329 98.8841L387.802 97.6671L386.549 99.1641L388.082 100.448ZM372.53 119.024L370.997 117.74L369.755 119.224L371.196 120.514L372.53 119.024ZM419.762 137.728C432.311 137.728 442.981 134.593 450.559 128.603C458.19 122.571 462.514 113.774 462.514 102.896H458.514C458.514 112.61 454.703 120.229 448.078 125.465C441.4 130.743 431.694 133.728 419.762 133.728V137.728ZM462.514 102.896V102.608H458.514V102.896H462.514ZM462.514 102.608C462.514 92.5507 458.621 85.3671 451.614 80.1264C444.753 74.9948 434.997 71.7925 423.355 69.2616L422.506 73.1703C434.048 75.6795 443.084 78.7412 449.219 83.3296C455.208 87.8089 458.514 93.8013 458.514 102.608H462.514ZM423.373 69.2655C416.353 67.6735 412.281 66.429 409.965 65.1191C408.85 64.4886 408.281 63.9169 407.971 63.4089C407.67 62.9175 407.506 62.3158 407.506 61.424H403.506C403.506 62.8362 403.775 64.2145 404.558 65.4961C405.332 66.7611 406.501 67.7554 407.996 68.6009C410.9 70.243 415.539 71.5905 422.488 73.1665L423.373 69.2655ZM407.506 61.424V61.136H403.506V61.424H407.506ZM407.506 61.136C407.506 60.0243 407.986 59.0017 409.154 58.1853C410.383 57.3265 412.455 56.656 415.586 56.656V52.656C411.95 52.656 408.982 53.4255 406.863 54.9067C404.683 56.4303 403.506 58.6477 403.506 61.136H407.506ZM415.586 56.656C424.023 56.656 433.709 59.9345 442.66 66.2281L444.961 62.9559C435.48 56.2895 425.006 52.656 415.586 52.656V56.656ZM445.443 65.7477L459.411 46.0197L456.146 43.7083L442.178 63.4363L445.443 65.7477ZM459.03 43.3043C447.686 34.199 433.836 29.472 416.306 29.472V33.472C433.049 33.472 445.983 37.961 456.526 46.4237L459.03 43.3043ZM416.306 29.472C403.847 29.472 393.597 32.9596 386.427 39.0563C379.231 45.1745 375.282 53.8035 375.282 63.728H379.282C379.282 54.9324 382.749 47.4335 389.018 42.1037C395.312 36.7524 404.574 33.472 416.306 33.472V29.472ZM375.282 63.728V64.016H379.282V63.728H375.282ZM375.282 64.016C375.282 75.0547 379.756 82.3597 387.107 87.4412C394.282 92.4012 404.14 95.2011 414.853 97.6459L415.743 93.7461C405.001 91.2949 395.851 88.6228 389.382 84.1508C383.088 79.8003 379.282 73.7133 379.282 64.016H375.282ZM414.847 97.6444C421.697 99.2307 425.667 100.545 427.91 101.866C428.996 102.505 429.553 103.076 429.855 103.568C430.144 104.037 430.29 104.581 430.29 105.344H434.29C434.29 104.019 434.023 102.709 433.263 101.473C432.516 100.259 431.391 99.2733 429.939 98.4184C427.106 96.751 422.58 95.3293 415.75 93.7476L414.847 97.6444ZM430.29 105.344V105.632H434.29V105.344H430.29ZM430.29 105.632C430.29 107.047 429.687 108.151 428.295 109.001C426.793 109.919 424.332 110.544 420.77 110.544V114.544C424.697 114.544 427.996 113.873 430.381 112.415C432.878 110.889 434.29 108.537 434.29 105.632H430.29ZM420.77 110.544C409.613 110.544 398.955 106.557 389.329 98.8841L386.836 102.012C397.082 110.179 408.6 114.544 420.77 114.544V110.544ZM386.549 99.1641L370.997 117.74L374.064 120.308L389.616 101.732L386.549 99.1641ZM371.196 120.514C384.01 131.986 401.505 137.728 419.762 137.728V133.728C402.308 133.728 385.819 128.238 373.864 117.534L371.196 120.514Z" fill="#EDEDED"/>
<rect x="224" y="32" width="19" height="103" fill="#EDEDED"/>
</svg>
